<svg width="162" height="22" viewBox="0 0 162 22" fill="none" xmlns="http://www.w3.org/2000/svg">
<path d="M20 11C20 16.5672 15.7034 21 10.5 21C5.29663 21 1 16.5672 1 11C1 5.4328 5.29663 1 10.5 1C15.7034 1 20 5.4328 20 11Z" stroke="#4831D4" stroke-width="2"/>
<circle cx="46" cy="11" r="10" stroke="#4831D4" stroke-width="2"/>
<path d="M90 11C90 16.6147 85.883 21 81 21C76.117 21 72 16.6147 72 11C72 5.38533 76.117 1 81 1C85.883 1 90 5.38533 90 11Z" stroke="#4831D4" stroke-width="2"/>
<circle cx="116" cy="11" r="10" stroke="#4831D4" stroke-width="2"/>
<path d="M161 11C161 16.5672 156.703 21 151.5 21C146.297 21 142 16.5672 142 11C142 5.4328 146.297 1 151.5 1C156.703 1 161 5.4328 161 11Z" stroke="#4831D4" stroke-width="2"/>
</svg>
