<svg width="134" height="123" viewBox="0 0 134 123" fill="none" xmlns="http://www.w3.org/2000/svg">
<circle cx="1" cy="1" r="1" fill="#CCF381"/>
<circle cx="12" cy="1" r="1" fill="#CCF381"/>
<circle cx="23" cy="1" r="1" fill="#CCF381"/>
<circle cx="34" cy="1" r="1" fill="#CCF381"/>
<circle cx="45" cy="1" r="1" fill="#CCF381"/>
<circle cx="56" cy="1" r="1" fill="#CCF381"/>
<circle cx="67" cy="1" r="1" fill="#CCF381"/>
<circle cx="78" cy="1" r="1" fill="#CCF381"/>
<circle cx="89" cy="1" r="1" fill="#CCF381"/>
<circle cx="100" cy="1" r="1" fill="#CCF381"/>
<circle cx="111" cy="1" r="1" fill="#CCF381"/>
<circle cx="122" cy="1" r="1" fill="#CCF381"/>
<circle cx="133" cy="1" r="1" fill="#CCF381"/>
<circle cx="1" cy="12" r="1" fill="#CCF381"/>
<circle cx="12" cy="12" r="1" fill="#CCF381"/>
<circle cx="23" cy="12" r="1" fill="#CCF381"/>
<circle cx="34" cy="12" r="1" fill="#CCF381"/>
<circle cx="45" cy="12" r="1" fill="#CCF381"/>
<circle cx="56" cy="12" r="1" fill="#CCF381"/>
<circle cx="67" cy="12" r="1" fill="#CCF381"/>
<circle cx="78" cy="12" r="1" fill="#CCF381"/>
<circle cx="89" cy="12" r="1" fill="#CCF381"/>
<circle cx="100" cy="12" r="1" fill="#CCF381"/>
<circle cx="111" cy="12" r="1" fill="#CCF381"/>
<circle cx="122" cy="12" r="1" fill="#CCF381"/>
<circle cx="133" cy="12" r="1" fill="#CCF381"/>
<circle cx="1" cy="23" r="1" fill="#CCF381"/>
<circle cx="12" cy="23" r="1" fill="#CCF381"/>
<circle cx="23" cy="23" r="1" fill="#CCF381"/>
<circle cx="34" cy="23" r="1" fill="#CCF381"/>
<circle cx="45" cy="23" r="1" fill="#CCF381"/>
<circle cx="56" cy="23" r="1" fill="#CCF381"/>
<circle cx="67" cy="23" r="1" fill="#CCF381"/>
<circle cx="78" cy="23" r="1" fill="#CCF381"/>
<circle cx="89" cy="23" r="1" fill="#CCF381"/>
<circle cx="100" cy="23" r="1" fill="#CCF381"/>
<circle cx="111" cy="23" r="1" fill="#CCF381"/>
<circle cx="122" cy="23" r="1" fill="#CCF381"/>
<circle cx="133" cy="23" r="1" fill="#CCF381"/>
<circle cx="1" cy="34" r="1" fill="#CCF381"/>
<circle cx="12" cy="34" r="1" fill="#CCF381"/>
<circle cx="23" cy="34" r="1" fill="#CCF381"/>
<circle cx="34" cy="34" r="1" fill="#CCF381"/>
<circle cx="45" cy="34" r="1" fill="#CCF381"/>
<circle cx="56" cy="34" r="1" fill="#CCF381"/>
<circle cx="67" cy="34" r="1" fill="#CCF381"/>
<circle cx="78" cy="34" r="1" fill="#CCF381"/>
<circle cx="89" cy="34" r="1" fill="#CCF381"/>
<circle cx="100" cy="34" r="1" fill="#CCF381"/>
<circle cx="111" cy="34" r="1" fill="#CCF381"/>
<circle cx="122" cy="34" r="1" fill="#CCF381"/>
<circle cx="133" cy="34" r="1" fill="#CCF381"/>
<circle cx="1" cy="45" r="1" fill="#CCF381"/>
<circle cx="12" cy="45" r="1" fill="#CCF381"/>
<circle cx="23" cy="45" r="1" fill="#CCF381"/>
<circle cx="34" cy="45" r="1" fill="#CCF381"/>
<circle cx="45" cy="45" r="1" fill="#CCF381"/>
<circle cx="56" cy="45" r="1" fill="#CCF381"/>
<circle cx="67" cy="45" r="1" fill="#CCF381"/>
<circle cx="78" cy="45" r="1" fill="#CCF381"/>
<circle cx="89" cy="45" r="1" fill="#CCF381"/>
<circle cx="100" cy="45" r="1" fill="#CCF381"/>
<circle cx="111" cy="45" r="1" fill="#CCF381"/>
<circle cx="122" cy="45" r="1" fill="#CCF381"/>
<circle cx="133" cy="45" r="1" fill="#CCF381"/>
<circle cx="1" cy="56" r="1" fill="#CCF381"/>
<circle cx="12" cy="56" r="1" fill="#CCF381"/>
<circle cx="23" cy="56" r="1" fill="#CCF381"/>
<circle cx="34" cy="56" r="1" fill="#CCF381"/>
<circle cx="45" cy="56" r="1" fill="#CCF381"/>
<circle cx="56" cy="56" r="1" fill="#CCF381"/>
<circle cx="67" cy="56" r="1" fill="#CCF381"/>
<circle cx="78" cy="56" r="1" fill="#CCF381"/>
<circle cx="89" cy="56" r="1" fill="#CCF381"/>
<circle cx="100" cy="56" r="1" fill="#CCF381"/>
<circle cx="111" cy="56" r="1" fill="#CCF381"/>
<circle cx="122" cy="56" r="1" fill="#CCF381"/>
<circle cx="133" cy="56" r="1" fill="#CCF381"/>
<circle cx="1" cy="67" r="1" fill="#CCF381"/>
<circle cx="12" cy="67" r="1" fill="#CCF381"/>
<circle cx="23" cy="67" r="1" fill="#CCF381"/>
<circle cx="34" cy="67" r="1" fill="#CCF381"/>
<circle cx="45" cy="67" r="1" fill="#CCF381"/>
<circle cx="56" cy="67" r="1" fill="#CCF381"/>
<circle cx="67" cy="67" r="1" fill="#CCF381"/>
<circle cx="78" cy="67" r="1" fill="#CCF381"/>
<circle cx="89" cy="67" r="1" fill="#CCF381"/>
<circle cx="100" cy="67" r="1" fill="#CCF381"/>
<circle cx="111" cy="67" r="1" fill="#CCF381"/>
<circle cx="122" cy="67" r="1" fill="#CCF381"/>
<circle cx="133" cy="67" r="1" fill="#CCF381"/>
<circle cx="1" cy="78" r="1" fill="#CCF381"/>
<circle cx="12" cy="78" r="1" fill="#CCF381"/>
<circle cx="23" cy="78" r="1" fill="#CCF381"/>
<circle cx="34" cy="78" r="1" fill="#CCF381"/>
<circle cx="45" cy="78" r="1" fill="#CCF381"/>
<circle cx="56" cy="78" r="1" fill="#CCF381"/>
<circle cx="67" cy="78" r="1" fill="#CCF381"/>
<circle cx="78" cy="78" r="1" fill="#CCF381"/>
<circle cx="89" cy="78" r="1" fill="#CCF381"/>
<circle cx="100" cy="78" r="1" fill="#CCF381"/>
<circle cx="111" cy="78" r="1" fill="#CCF381"/>
<circle cx="122" cy="78" r="1" fill="#CCF381"/>
<circle cx="133" cy="78" r="1" fill="#CCF381"/>
<circle cx="1" cy="89" r="1" fill="#CCF381"/>
<circle cx="12" cy="89" r="1" fill="#CCF381"/>
<circle cx="23" cy="89" r="1" fill="#CCF381"/>
<circle cx="34" cy="89" r="1" fill="#CCF381"/>
<circle cx="45" cy="89" r="1" fill="#CCF381"/>
<circle cx="56" cy="89" r="1" fill="#CCF381"/>
<circle cx="67" cy="89" r="1" fill="#CCF381"/>
<circle cx="78" cy="89" r="1" fill="#CCF381"/>
<circle cx="89" cy="89" r="1" fill="#CCF381"/>
<circle cx="100" cy="89" r="1" fill="#CCF381"/>
<circle cx="111" cy="89" r="1" fill="#CCF381"/>
<circle cx="122" cy="89" r="1" fill="#CCF381"/>
<circle cx="133" cy="89" r="1" fill="#CCF381"/>
<circle cx="1" cy="100" r="1" fill="#CCF381"/>
<circle cx="12" cy="100" r="1" fill="#CCF381"/>
<circle cx="23" cy="100" r="1" fill="#CCF381"/>
<circle cx="34" cy="100" r="1" fill="#CCF381"/>
<circle cx="45" cy="100" r="1" fill="#CCF381"/>
<circle cx="56" cy="100" r="1" fill="#CCF381"/>
<circle cx="67" cy="100" r="1" fill="#CCF381"/>
<circle cx="78" cy="100" r="1" fill="#CCF381"/>
<circle cx="89" cy="100" r="1" fill="#CCF381"/>
<circle cx="100" cy="100" r="1" fill="#CCF381"/>
<circle cx="111" cy="100" r="1" fill="#CCF381"/>
<circle cx="122" cy="100" r="1" fill="#CCF381"/>
<circle cx="133" cy="100" r="1" fill="#CCF381"/>
<circle cx="1" cy="111" r="1" fill="#CCF381"/>
<circle cx="12" cy="111" r="1" fill="#CCF381"/>
<circle cx="23" cy="111" r="1" fill="#CCF381"/>
<circle cx="34" cy="111" r="1" fill="#CCF381"/>
<circle cx="45" cy="111" r="1" fill="#CCF381"/>
<circle cx="56" cy="111" r="1" fill="#CCF381"/>
<circle cx="67" cy="111" r="1" fill="#CCF381"/>
<circle cx="78" cy="111" r="1" fill="#CCF381"/>
<circle cx="89" cy="111" r="1" fill="#CCF381"/>
<circle cx="100" cy="111" r="1" fill="#CCF381"/>
<circle cx="111" cy="111" r="1" fill="#CCF381"/>
<circle cx="122" cy="111" r="1" fill="#CCF381"/>
<circle cx="133" cy="111" r="1" fill="#CCF381"/>
<circle cx="1" cy="122" r="1" fill="#CCF381"/>
<circle cx="12" cy="122" r="1" fill="#CCF381"/>
<circle cx="23" cy="122" r="1" fill="#CCF381"/>
<circle cx="34" cy="122" r="1" fill="#CCF381"/>
<circle cx="45" cy="122" r="1" fill="#CCF381"/>
<circle cx="56" cy="122" r="1" fill="#CCF381"/>
<circle cx="67" cy="122" r="1" fill="#CCF381"/>
<circle cx="78" cy="122" r="1" fill="#CCF381"/>
<circle cx="89" cy="122" r="1" fill="#CCF381"/>
<circle cx="100" cy="122" r="1" fill="#CCF381"/>
<circle cx="111" cy="122" r="1" fill="#CCF381"/>
<circle cx="122" cy="122" r="1" fill="#CCF381"/>
<circle cx="133" cy="122" r="1" fill="#CCF381"/>
</svg>
